<svg fill="none" height="100%" width="100%" viewBox="0 0 880 880" xmlns:xlink="http://www.w3.org/1999/xlink" xmlns="http://www.w3.org/2000/svg"><defs><clipPath id="i0"><rect height="880" width="880" y="0" x="0" /></clipPath><g id="i1"><g visibility="hidden" id="i2"><animate repeatCount="indefinite" begin="0s" calcMode="discrete" dur="4s" values="hidden; visible; visible" keyTimes="0; 0.03; 1" attributeName="visibility" /><animate repeatCount="indefinite" attributeName="opacity" dur="4s" begin="0s" fill="freeze" values="1; 1; 0; 0; 1; 1; 0; 0; 1; 1" keyTimes="0; 0.07; 0.11; 0.15; 0.19; 0.25; 0.29; 0.33; 0.37; 1" keySplines="0 0 1 1; 0 0 1 1; 0 0 1 1; 0 0 1 1; 0 0 1 1; 0 0 1 1; 0 0 1 1; 0 0 1 1; 0 0 1 1" calcMode="spline" /><g transform="translate(362.559,719.988)"><animateTransform repeatCount="indefinite" type="translate" attributeName="transform" dur="4s" begin="0s" calcMode="spline" values="362.559 719.988; 362.559 719.988; 301.559 832.988; 435.88 585.787; 362.559 719.988; 301.559 832.988; 435.88 585.787; 362.559 719.988; 362.559 719.988" keyTimes="0; 0.03; 0.11; 0.15; 0.21; 0.29; 0.33; 0.39; 1" keySplines="0 0 1 1; 0 0 1 1; 0 0 1 1; 0 0 1 1; 0 0 1 1; 0 0 1 1; 0 0 1 1; 0 0 1 1" fill="freeze" /><g transform="scale(1,1) translate(-300.559,-637.988)"><g id="i3" transform="matrix(1,0,0,1,300.559,635.839)"><path fill="#ffffff" d="M-7.8,47.119C-12.601,47.119,-17.48,46.002,-22.038,43.522C-36.839,35.6,-42.442,17.201,-34.602,2.401C-34.602,2.401,-19.077,-26.72,-19.077,-26.72C-11.159,-41.517,7.243,-47.119,22.04,-39.279C36.841,-31.357,42.442,-12.959,34.602,1.842C34.602,1.842,19.083,30.959,19.083,30.959C13.641,41.28,3.083,47.119,-7.8,47.119Z" /></g><g id="i4"><path fill="#ffffff" d="" /></g></g></g></g></g><g id="i5"><g id="i2"><animate repeatCount="indefinite" attributeName="opacity" dur="4s" begin="0s" fill="freeze" values="1; 1; 0; 0; 1; 1; 0; 0; 1; 1" keyTimes="0; 0.04; 0.08; 0.12; 0.16; 0.22; 0.26; 0.3; 0.34; 1" keySplines="0 0 1 1; 0 0 1 1; 0 0 1 1; 0 0 1 1; 0 0 1 1; 0 0 1 1; 0 0 1 1; 0 0 1 1; 0 0 1 1" calcMode="spline" /><g transform="translate(362.559,719.988)"><animateTransform repeatCount="indefinite" type="translate" attributeName="transform" dur="4s" begin="0s" calcMode="spline" values="362.559 719.988; 301.559 832.988; 435.88 585.787; 362.559 719.988; 301.559 832.988; 435.88 585.787; 362.559 719.988; 362.559 719.988" keyTimes="0; 0.08; 0.12; 0.18; 0.26; 0.3; 0.36; 1" keySplines="0 0 1 1; 0 0 1 1; 0 0 1 1; 0 0 1 1; 0 0 1 1; 0 0 1 1; 0 0 1 1" fill="freeze" /><g transform="scale(1,1) translate(-300.559,-637.988)"><g id="i3" transform="matrix(1,0,0,1,300.559,635.839)"><path fill="#ffffff" d="M-7.8,47.119C-12.601,47.119,-17.48,46.002,-22.038,43.522C-36.839,35.6,-42.442,17.201,-34.602,2.401C-34.602,2.401,-19.077,-26.72,-19.077,-26.72C-11.159,-41.517,7.243,-47.119,22.04,-39.279C36.841,-31.357,42.442,-12.959,34.602,1.842C34.602,1.842,19.083,30.959,19.083,30.959C13.641,41.28,3.083,47.119,-7.8,47.119Z" /></g><g id="i4"><path fill="#ffffff" d="" /></g></g></g></g></g><g id="i6"><g visibility="hidden" id="i2"><animate repeatCount="indefinite" begin="0s" calcMode="discrete" dur="4s" values="hidden; visible; visible" keyTimes="0; 0.07; 1" attributeName="visibility" /><animate repeatCount="indefinite" attributeName="opacity" dur="4s" begin="0s" fill="freeze" values="1; 1; 0; 0; 1; 1; 0; 0; 1; 1" keyTimes="0; 0.11; 0.15; 0.19; 0.23; 0.29; 0.33; 0.37; 0.41; 1" keySplines="0 0 1 1; 0 0 1 1; 0 0 1 1; 0 0 1 1; 0 0 1 1; 0 0 1 1; 0 0 1 1; 0 0 1 1; 0 0 1 1" calcMode="spline" /><g transform="translate(362.559,719.988)"><animateTransform repeatCount="indefinite" type="translate" attributeName="transform" dur="4s" begin="0s" calcMode="spline" values="362.559 719.988; 362.559 719.988; 301.559 832.988; 435.88 585.787; 362.559 719.988; 301.559 832.988; 435.88 585.787; 362.559 719.988; 362.559 719.988" keyTimes="0; 0.07; 0.15; 0.19; 0.25; 0.33; 0.37; 0.43; 1" keySplines="0 0 1 1; 0 0 1 1; 0 0 1 1; 0 0 1 1; 0 0 1 1; 0 0 1 1; 0 0 1 1; 0 0 1 1" fill="freeze" /><g transform="scale(1,1) translate(-300.559,-637.988)"><g id="i3" transform="matrix(1,0,0,1,300.559,635.839)"><path fill="#ffffff" d="M-7.8,47.119C-12.601,47.119,-17.48,46.002,-22.038,43.522C-36.839,35.6,-42.442,17.201,-34.602,2.401C-34.602,2.401,-19.077,-26.72,-19.077,-26.72C-11.159,-41.517,7.243,-47.119,22.04,-39.279C36.841,-31.357,42.442,-12.959,34.602,1.842C34.602,1.842,19.083,30.959,19.083,30.959C13.641,41.28,3.083,47.119,-7.8,47.119Z" /></g><g id="i4"><path fill="#ffffff" d="" /></g></g></g></g></g><g id="i7"><g visibility="hidden" id="i2"><animate repeatCount="indefinite" begin="0s" calcMode="discrete" dur="4s" values="hidden; visible; visible" keyTimes="0; 0.09; 1" attributeName="visibility" /><animate repeatCount="indefinite" attributeName="opacity" dur="4s" begin="0s" fill="freeze" values="1; 1; 0; 0; 1; 1; 0; 0; 1; 1" keyTimes="0; 0.13; 0.17; 0.21; 0.25; 0.31; 0.35; 0.39; 0.43; 1" keySplines="0 0 1 1; 0 0 1 1; 0 0 1 1; 0 0 1 1; 0 0 1 1; 0 0 1 1; 0 0 1 1; 0 0 1 1; 0 0 1 1" calcMode="spline" /><g transform="translate(362.559,719.988)"><animateTransform repeatCount="indefinite" type="translate" attributeName="transform" dur="4s" begin="0s" calcMode="spline" values="362.559 719.988; 362.559 719.988; 301.559 832.988; 435.88 585.787; 362.559 719.988; 301.559 832.988; 435.88 585.787; 362.559 719.988; 362.559 719.988" keyTimes="0; 0.09; 0.17; 0.21; 0.27; 0.35; 0.39; 0.45; 1" keySplines="0 0 1 1; 0 0 1 1; 0 0 1 1; 0 0 1 1; 0 0 1 1; 0 0 1 1; 0 0 1 1; 0 0 1 1" fill="freeze" /><g transform="scale(1,1) translate(-300.559,-637.988)"><g id="i3" transform="matrix(1,0,0,1,300.559,635.839)"><path fill="#ffffff" d="M-7.8,47.119C-12.601,47.119,-17.48,46.002,-22.038,43.522C-36.839,35.6,-42.442,17.201,-34.602,2.401C-34.602,2.401,-19.077,-26.72,-19.077,-26.72C-11.159,-41.517,7.243,-47.119,22.04,-39.279C36.841,-31.357,42.442,-12.959,34.602,1.842C34.602,1.842,19.083,30.959,19.083,30.959C13.641,41.28,3.083,47.119,-7.8,47.119Z" /></g><g id="i4"><path fill="#ffffff" d="" /></g></g></g></g></g><g id="i8"><g visibility="hidden" id="i2"><animate repeatCount="indefinite" begin="0s" calcMode="discrete" dur="4s" values="hidden; visible; visible" keyTimes="0; 0.05; 1" attributeName="visibility" /><animate repeatCount="indefinite" attributeName="opacity" dur="4s" begin="0s" fill="freeze" values="1; 1; 0; 0; 1; 1; 0; 0; 1; 1" keyTimes="0; 0.09; 0.13; 0.17; 0.21; 0.27; 0.31; 0.35; 0.39; 1" keySplines="0 0 1 1; 0 0 1 1; 0 0 1 1; 0 0 1 1; 0 0 1 1; 0 0 1 1; 0 0 1 1; 0 0 1 1; 0 0 1 1" calcMode="spline" /><g transform="translate(362.559,719.988)"><animateTransform repeatCount="indefinite" type="translate" attributeName="transform" dur="4s" begin="0s" calcMode="spline" values="362.559 719.988; 362.559 719.988; 301.559 832.988; 435.88 585.787; 362.559 719.988; 301.559 832.988; 435.88 585.787; 362.559 719.988; 362.559 719.988" keyTimes="0; 0.05; 0.13; 0.17; 0.23; 0.31; 0.35; 0.41; 1" keySplines="0 0 1 1; 0 0 1 1; 0 0 1 1; 0 0 1 1; 0 0 1 1; 0 0 1 1; 0 0 1 1; 0 0 1 1" fill="freeze" /><g transform="scale(1,1) translate(-300.559,-637.988)"><g id="i3" transform="matrix(1,0,0,1,300.559,635.839)"><path fill="#ffffff" d="M-7.8,47.119C-12.601,47.119,-17.48,46.002,-22.038,43.522C-36.839,35.6,-42.442,17.201,-34.602,2.401C-34.602,2.401,-19.077,-26.72,-19.077,-26.72C-11.159,-41.517,7.243,-47.119,22.04,-39.279C36.841,-31.357,42.442,-12.959,34.602,1.842C34.602,1.842,19.083,30.959,19.083,30.959C13.641,41.28,3.083,47.119,-7.8,47.119Z" /></g><g id="i4"><path fill="#ffffff" d="" /></g></g></g></g></g><g id="i9"><g visibility="hidden" id="i2"><animate repeatCount="indefinite" begin="0s" calcMode="discrete" dur="4s" values="hidden; visible; visible" keyTimes="0; 0.1; 1" attributeName="visibility" /><animate repeatCount="indefinite" attributeName="opacity" dur="4s" begin="0s" fill="freeze" values="1; 1; 0; 0; 1; 1; 0; 0; 1; 1" keyTimes="0; 0.14; 0.18; 0.22; 0.26; 0.32; 0.36; 0.4; 0.44; 1" keySplines="0 0 1 1; 0 0 1 1; 0 0 1 1; 0 0 1 1; 0 0 1 1; 0 0 1 1; 0 0 1 1; 0 0 1 1; 0 0 1 1" calcMode="spline" /><g transform="translate(362.559,719.988)"><animateTransform repeatCount="indefinite" type="translate" attributeName="transform" dur="4s" begin="0s" calcMode="spline" values="362.559 719.988; 362.559 719.988; 301.559 832.988; 435.88 585.787; 362.559 719.988; 301.559 832.988; 435.88 585.787; 362.559 719.988; 362.559 719.988" keyTimes="0; 0.1; 0.18; 0.22; 0.28; 0.36; 0.4; 0.46; 1" keySplines="0 0 1 1; 0 0 1 1; 0 0 1 1; 0 0 1 1; 0 0 1 1; 0 0 1 1; 0 0 1 1; 0 0 1 1" fill="freeze" /><g transform="scale(1,1) translate(-300.559,-637.988)"><g id="i3" transform="matrix(1,0,0,1,300.559,635.839)"><path fill="#ffffff" d="M-7.8,47.119C-12.601,47.119,-17.48,46.002,-22.038,43.522C-36.839,35.6,-42.442,17.201,-34.602,2.401C-34.602,2.401,-19.077,-26.72,-19.077,-26.72C-11.159,-41.517,7.243,-47.119,22.04,-39.279C36.841,-31.357,42.442,-12.959,34.602,1.842C34.602,1.842,19.083,30.959,19.083,30.959C13.641,41.28,3.083,47.119,-7.8,47.119Z" /></g><g id="i4"><path fill="#ffffff" d="" /></g></g></g></g></g></defs><g transform="matrix(1,0,0,1,82,82)" id="i10"><g id="i3" transform="matrix(1,0,0,1,357.22,301.8)"><path fill="#ffffff" d="M340.141,6.279C329.899,-17.799,315.181,-39.4,296.461,-57.959C277.821,-76.439,256.059,-91.002,231.899,-101.158C207.899,-111.24,182.539,-116.521,156.379,-117.002C153.821,-126.76,150.461,-136.361,146.461,-145.799C135.661,-171.08,120.302,-193.721,100.7,-213.158C81.102,-232.6,58.302,-247.799,32.942,-258.439C6.621,-269.478,-21.218,-275.08,-49.942,-275.08C-78.659,-275.08,-106.499,-269.478,-132.819,-258.439C-158.179,-247.799,-180.98,-232.521,-200.577,-213.158C-220.179,-193.721,-235.62,-171.08,-246.339,-145.799C-257.538,-119.56,-263.218,-91.721,-263.218,-63.08C-263.218,-57.721,-262.98,-52.439,-262.577,-47.158C-280.418,-37.478,-296.659,-24.842,-310.499,-9.478C-340.101,23.24,-356.339,65.4,-356.339,109.158C-356.339,133.158,-351.538,156.522,-342.101,178.6C-333.058,199.721,-320.101,218.759,-303.62,235.08C-297.78,240.841,-291.62,246.201,-285.14,251.08C-285.14,251.08,-259.859,192.841,-259.859,192.841C-281.78,171.561,-295.538,141.881,-295.538,109.24C-295.538,49.561,-249.859,-0.041,-191.461,-6.92C-198.418,-24.279,-202.418,-43.158,-202.418,-63.002C-202.418,-146.521,-134.179,-214.201,-49.942,-214.201C34.302,-214.201,102.539,-146.521,102.539,-63.002C102.539,-57.4,102.22,-51.959,101.582,-46.521C117.5,-52.6,134.782,-56.119,152.942,-56.119C231.582,-56.119,295.423,7.08,295.423,85.158C295.423,132.682,271.739,174.759,235.422,200.361C235.422,200.361,222.539,275.08,222.539,275.08C253.102,264.041,280.7,245.799,303.02,221.479C337.341,184.201,356.22,135.799,356.22,85.158C356.22,57.799,350.782,31.24,340.141,6.279Z" /></g><g id="i4" transform="matrix(1,0,0,1,468.681,232.079)"><path fill="#ffffff" d="M-43.082,46.8C-51.723,46.8,-60.359,43.12,-66.359,35.999C-77.159,23.199,-75.563,4,-62.763,-6.8C-32.199,-32.558,6.679,-46.8,46.758,-46.8C63.558,-46.8,77.159,-33.199,77.159,-16.398C77.159,0.403,63.558,13.999,46.758,13.999C21.077,13.999,-3.961,23.121,-23.562,39.68C-29.241,44.403,-36.198,46.8,-43.082,46.8Z" /></g></g><g transform="matrix(1,0,0,1,-140,8)" visibility="hidden" id="i11"><animate repeatCount="indefinite" begin="0s" calcMode="discrete" dur="4s" values="hidden; visible; visible" keyTimes="0; 0.03; 1" attributeName="visibility" /><g clip-path="url(#i0)"><g visibility="hidden"><animate repeatCount="indefinite" begin="0s" calcMode="discrete" dur="4s" values="hidden; visible; visible" keyTimes="0; 0.03; 1" attributeName="visibility" /><animate repeatCount="indefinite" attributeName="opacity" dur="4s" begin="0s" fill="freeze" values="1; 1; 0; 0; 1; 1; 0; 0; 1; 1" keyTimes="0; 0.07; 0.11; 0.15; 0.19; 0.25; 0.29; 0.33; 0.37; 1" keySplines="0 0 1 1; 0 0 1 1; 0 0 1 1; 0 0 1 1; 0 0 1 1; 0 0 1 1; 0 0 1 1; 0 0 1 1; 0 0 1 1" calcMode="spline" /><g transform="translate(362.559,719.988)"><animateTransform repeatCount="indefinite" type="translate" attributeName="transform" dur="4s" begin="0s" calcMode="spline" values="362.559 719.988; 362.559 719.988; 301.559 832.988; 435.88 585.787; 362.559 719.988; 301.559 832.988; 435.88 585.787; 362.559 719.988; 362.559 719.988" keyTimes="0; 0.03; 0.11; 0.15; 0.21; 0.29; 0.33; 0.39; 1" keySplines="0 0 1 1; 0 0 1 1; 0 0 1 1; 0 0 1 1; 0 0 1 1; 0 0 1 1; 0 0 1 1; 0 0 1 1" fill="freeze" /><g transform="scale(1,1) translate(-300.559,-637.988)"><g transform="matrix(1,0,0,1,300.559,635.839)"><path fill="#ffffff" d="M-7.8,47.119C-12.601,47.119,-17.48,46.002,-22.038,43.522C-36.839,35.6,-42.442,17.201,-34.602,2.401C-34.602,2.401,-19.077,-26.72,-19.077,-26.72C-11.159,-41.517,7.243,-47.119,22.04,-39.279C36.841,-31.357,42.442,-12.959,34.602,1.842C34.602,1.842,19.083,30.959,19.083,30.959C13.641,41.28,3.083,47.119,-7.8,47.119Z" /></g><g><path fill="#ffffff" d="" /></g></g></g></g></g></g><g transform="matrix(1,0,0,1,7.5,8)" id="i11"><g clip-path="url(#i0)"><g><animate repeatCount="indefinite" attributeName="opacity" dur="4s" begin="0s" fill="freeze" values="1; 1; 0; 0; 1; 1; 0; 0; 1; 1" keyTimes="0; 0.04; 0.08; 0.12; 0.16; 0.22; 0.26; 0.3; 0.34; 1" keySplines="0 0 1 1; 0 0 1 1; 0 0 1 1; 0 0 1 1; 0 0 1 1; 0 0 1 1; 0 0 1 1; 0 0 1 1; 0 0 1 1" calcMode="spline" /><g transform="translate(362.559,719.988)"><animateTransform repeatCount="indefinite" type="translate" attributeName="transform" dur="4s" begin="0s" calcMode="spline" values="362.559 719.988; 301.559 832.988; 435.88 585.787; 362.559 719.988; 301.559 832.988; 435.88 585.787; 362.559 719.988; 362.559 719.988" keyTimes="0; 0.08; 0.12; 0.18; 0.26; 0.3; 0.36; 1" keySplines="0 0 1 1; 0 0 1 1; 0 0 1 1; 0 0 1 1; 0 0 1 1; 0 0 1 1; 0 0 1 1" fill="freeze" /><g transform="scale(1,1) translate(-300.559,-637.988)"><g transform="matrix(1,0,0,1,300.559,635.839)"><path fill="#ffffff" d="M-7.8,47.119C-12.601,47.119,-17.48,46.002,-22.038,43.522C-36.839,35.6,-42.442,17.201,-34.602,2.401C-34.602,2.401,-19.077,-26.72,-19.077,-26.72C-11.159,-41.517,7.243,-47.119,22.04,-39.279C36.841,-31.357,42.442,-12.959,34.602,1.842C34.602,1.842,19.083,30.959,19.083,30.959C13.641,41.28,3.083,47.119,-7.8,47.119Z" /></g><g><path fill="#ffffff" d="" /></g></g></g></g></g></g><g transform="matrix(1,0,0,1,154,8)" visibility="hidden" id="i11"><animate repeatCount="indefinite" begin="0s" calcMode="discrete" dur="4s" values="hidden; visible; visible" keyTimes="0; 0.07; 1" attributeName="visibility" /><g clip-path="url(#i0)"><g visibility="hidden"><animate repeatCount="indefinite" begin="0s" calcMode="discrete" dur="4s" values="hidden; visible; visible" keyTimes="0; 0.07; 1" attributeName="visibility" /><animate repeatCount="indefinite" attributeName="opacity" dur="4s" begin="0s" fill="freeze" values="1; 1; 0; 0; 1; 1; 0; 0; 1; 1" keyTimes="0; 0.11; 0.15; 0.19; 0.23; 0.29; 0.33; 0.37; 0.41; 1" keySplines="0 0 1 1; 0 0 1 1; 0 0 1 1; 0 0 1 1; 0 0 1 1; 0 0 1 1; 0 0 1 1; 0 0 1 1; 0 0 1 1" calcMode="spline" /><g transform="translate(362.559,719.988)"><animateTransform repeatCount="indefinite" type="translate" attributeName="transform" dur="4s" begin="0s" calcMode="spline" values="362.559 719.988; 362.559 719.988; 301.559 832.988; 435.88 585.787; 362.559 719.988; 301.559 832.988; 435.88 585.787; 362.559 719.988; 362.559 719.988" keyTimes="0; 0.07; 0.15; 0.19; 0.25; 0.33; 0.37; 0.43; 1" keySplines="0 0 1 1; 0 0 1 1; 0 0 1 1; 0 0 1 1; 0 0 1 1; 0 0 1 1; 0 0 1 1; 0 0 1 1" fill="freeze" /><g transform="scale(1,1) translate(-300.559,-637.988)"><g transform="matrix(1,0,0,1,300.559,635.839)"><path fill="#ffffff" d="M-7.8,47.119C-12.601,47.119,-17.48,46.002,-22.038,43.522C-36.839,35.6,-42.442,17.201,-34.602,2.401C-34.602,2.401,-19.077,-26.72,-19.077,-26.72C-11.159,-41.517,7.243,-47.119,22.04,-39.279C36.841,-31.357,42.442,-12.959,34.602,1.842C34.602,1.842,19.083,30.959,19.083,30.959C13.641,41.28,3.083,47.119,-7.8,47.119Z" /></g><g><path fill="#ffffff" d="" /></g></g></g></g></g></g><g transform="matrix(1,0,0,1,-94.5,-107.5)" visibility="hidden" id="i11"><animate repeatCount="indefinite" begin="0s" calcMode="discrete" dur="4s" values="hidden; visible; visible" keyTimes="0; 0.09; 1" attributeName="visibility" /><g clip-path="url(#i0)"><g visibility="hidden"><animate repeatCount="indefinite" begin="0s" calcMode="discrete" dur="4s" values="hidden; visible; visible" keyTimes="0; 0.09; 1" attributeName="visibility" /><animate repeatCount="indefinite" attributeName="opacity" dur="4s" begin="0s" fill="freeze" values="1; 1; 0; 0; 1; 1; 0; 0; 1; 1" keyTimes="0; 0.13; 0.17; 0.21; 0.25; 0.31; 0.35; 0.39; 0.43; 1" keySplines="0 0 1 1; 0 0 1 1; 0 0 1 1; 0 0 1 1; 0 0 1 1; 0 0 1 1; 0 0 1 1; 0 0 1 1; 0 0 1 1" calcMode="spline" /><g transform="translate(362.559,719.988)"><animateTransform repeatCount="indefinite" type="translate" attributeName="transform" dur="4s" begin="0s" calcMode="spline" values="362.559 719.988; 362.559 719.988; 301.559 832.988; 435.88 585.787; 362.559 719.988; 301.559 832.988; 435.88 585.787; 362.559 719.988; 362.559 719.988" keyTimes="0; 0.09; 0.17; 0.21; 0.27; 0.35; 0.39; 0.45; 1" keySplines="0 0 1 1; 0 0 1 1; 0 0 1 1; 0 0 1 1; 0 0 1 1; 0 0 1 1; 0 0 1 1; 0 0 1 1" fill="freeze" /><g transform="scale(1,1) translate(-300.559,-637.988)"><g transform="matrix(1,0,0,1,300.559,635.839)"><path fill="#ffffff" d="M-7.8,47.119C-12.601,47.119,-17.48,46.002,-22.038,43.522C-36.839,35.6,-42.442,17.201,-34.602,2.401C-34.602,2.401,-19.077,-26.72,-19.077,-26.72C-11.159,-41.517,7.243,-47.119,22.04,-39.279C36.841,-31.357,42.442,-12.959,34.602,1.842C34.602,1.842,19.083,30.959,19.083,30.959C13.641,41.28,3.083,47.119,-7.8,47.119Z" /></g><g><path fill="#ffffff" d="" /></g></g></g></g></g></g><g transform="matrix(1,0,0,1,53.5,-107.5)" visibility="hidden" id="i11"><animate repeatCount="indefinite" begin="0s" calcMode="discrete" dur="4s" values="hidden; visible; visible" keyTimes="0; 0.05; 1" attributeName="visibility" /><g clip-path="url(#i0)"><g visibility="hidden"><animate repeatCount="indefinite" begin="0s" calcMode="discrete" dur="4s" values="hidden; visible; visible" keyTimes="0; 0.05; 1" attributeName="visibility" /><animate repeatCount="indefinite" attributeName="opacity" dur="4s" begin="0s" fill="freeze" values="1; 1; 0; 0; 1; 1; 0; 0; 1; 1" keyTimes="0; 0.09; 0.13; 0.17; 0.21; 0.27; 0.31; 0.35; 0.39; 1" keySplines="0 0 1 1; 0 0 1 1; 0 0 1 1; 0 0 1 1; 0 0 1 1; 0 0 1 1; 0 0 1 1; 0 0 1 1; 0 0 1 1" calcMode="spline" /><g transform="translate(362.559,719.988)"><animateTransform repeatCount="indefinite" type="translate" attributeName="transform" dur="4s" begin="0s" calcMode="spline" values="362.559 719.988; 362.559 719.988; 301.559 832.988; 435.88 585.787; 362.559 719.988; 301.559 832.988; 435.88 585.787; 362.559 719.988; 362.559 719.988" keyTimes="0; 0.05; 0.13; 0.17; 0.23; 0.31; 0.35; 0.41; 1" keySplines="0 0 1 1; 0 0 1 1; 0 0 1 1; 0 0 1 1; 0 0 1 1; 0 0 1 1; 0 0 1 1; 0 0 1 1" fill="freeze" /><g transform="scale(1,1) translate(-300.559,-637.988)"><g transform="matrix(1,0,0,1,300.559,635.839)"><path fill="#ffffff" d="M-7.8,47.119C-12.601,47.119,-17.48,46.002,-22.038,43.522C-36.839,35.6,-42.442,17.201,-34.602,2.401C-34.602,2.401,-19.077,-26.72,-19.077,-26.72C-11.159,-41.517,7.243,-47.119,22.04,-39.279C36.841,-31.357,42.442,-12.959,34.602,1.842C34.602,1.842,19.083,30.959,19.083,30.959C13.641,41.28,3.083,47.119,-7.8,47.119Z" /></g><g><path fill="#ffffff" d="" /></g></g></g></g></g></g><g transform="matrix(1,0,0,1,200,-107.5)" visibility="hidden" id="i11"><animate repeatCount="indefinite" begin="0s" calcMode="discrete" dur="4s" values="hidden; visible; visible" keyTimes="0; 0.1; 1" attributeName="visibility" /><g clip-path="url(#i0)"><g visibility="hidden"><animate repeatCount="indefinite" begin="0s" calcMode="discrete" dur="4s" values="hidden; visible; visible" keyTimes="0; 0.1; 1" attributeName="visibility" /><animate repeatCount="indefinite" attributeName="opacity" dur="4s" begin="0s" fill="freeze" values="1; 1; 0; 0; 1; 1; 0; 0; 1; 1" keyTimes="0; 0.14; 0.18; 0.22; 0.26; 0.32; 0.36; 0.4; 0.44; 1" keySplines="0 0 1 1; 0 0 1 1; 0 0 1 1; 0 0 1 1; 0 0 1 1; 0 0 1 1; 0 0 1 1; 0 0 1 1; 0 0 1 1" calcMode="spline" /><g transform="translate(362.559,719.988)"><animateTransform repeatCount="indefinite" type="translate" attributeName="transform" dur="4s" begin="0s" calcMode="spline" values="362.559 719.988; 362.559 719.988; 301.559 832.988; 435.88 585.787; 362.559 719.988; 301.559 832.988; 435.88 585.787; 362.559 719.988; 362.559 719.988" keyTimes="0; 0.1; 0.18; 0.22; 0.28; 0.36; 0.4; 0.46; 1" keySplines="0 0 1 1; 0 0 1 1; 0 0 1 1; 0 0 1 1; 0 0 1 1; 0 0 1 1; 0 0 1 1; 0 0 1 1" fill="freeze" /><g transform="scale(1,1) translate(-300.559,-637.988)"><g transform="matrix(1,0,0,1,300.559,635.839)"><path fill="#ffffff" d="M-7.8,47.119C-12.601,47.119,-17.48,46.002,-22.038,43.522C-36.839,35.6,-42.442,17.201,-34.602,2.401C-34.602,2.401,-19.077,-26.72,-19.077,-26.72C-11.159,-41.517,7.243,-47.119,22.04,-39.279C36.841,-31.357,42.442,-12.959,34.602,1.842C34.602,1.842,19.083,30.959,19.083,30.959C13.641,41.28,3.083,47.119,-7.8,47.119Z" /></g><g><path fill="#ffffff" d="" /></g></g></g></g></g></g><g transform="matrix(1,0,0,1,-128.559,197)" visibility="visible" id="i12"><animate repeatCount="indefinite" begin="0s" calcMode="discrete" dur="4s" values="visible; hidden; hidden" keyTimes="0; 0.03; 1" attributeName="visibility" /><g id="i3" transform="matrix(1,0,0,1,351.016,528.813)"><path fill="#ffffff" d="M-7.8,47.119C-12.601,47.119,-17.48,46.002,-22.038,43.52C-36.839,35.598,-42.442,17.201,-34.602,2.399C-34.602,2.399,-19.077,-26.722,-19.077,-26.722C-11.159,-41.523,7.243,-47.119,22.04,-39.28C36.842,-31.362,42.442,-12.959,34.602,1.842C34.602,1.842,19.083,30.959,19.083,30.959C13.641,41.201,3.083,47.119,-7.8,47.119Z" /></g><g id="i4" transform="matrix(1,0,0,1,-38,-2)"><path fill="#ffffff" d="" /></g></g><g transform="matrix(1,0,0,1,65.441,82)" visibility="visible" id="i13"><animate repeatCount="indefinite" begin="0s" calcMode="discrete" dur="4s" values="visible; hidden; hidden" keyTimes="0; 0.05; 1" attributeName="visibility" /><g id="i3" transform="matrix(1,0,0,1,351.016,528.813)"><path fill="#ffffff" d="M-7.8,47.119C-12.601,47.119,-17.48,46.002,-22.038,43.52C-36.839,35.598,-42.442,17.201,-34.602,2.399C-34.602,2.399,-19.077,-26.722,-19.077,-26.722C-11.159,-41.523,7.243,-47.119,22.04,-39.28C36.842,-31.362,42.442,-12.959,34.602,1.842C34.602,1.842,19.083,30.959,19.083,30.959C13.641,41.201,3.083,47.119,-7.8,47.119Z" /></g><g id="i4" transform="matrix(1,0,0,1,-38,-2)"><path fill="#ffffff" d="" /></g></g><g transform="matrix(1,0,0,1,165.441,197)" visibility="visible" id="i14"><animate repeatCount="indefinite" begin="0s" calcMode="discrete" dur="4s" values="visible; hidden; hidden" keyTimes="0; 0.07; 1" attributeName="visibility" /><g id="i3" transform="matrix(1,0,0,1,351.016,528.813)"><path fill="#ffffff" d="M-7.8,47.119C-12.601,47.119,-17.48,46.002,-22.038,43.52C-36.839,35.598,-42.442,17.201,-34.602,2.399C-34.602,2.399,-19.077,-26.722,-19.077,-26.722C-11.159,-41.523,7.243,-47.119,22.04,-39.28C36.842,-31.362,42.442,-12.959,34.602,1.842C34.602,1.842,19.083,30.959,19.083,30.959C13.641,41.201,3.083,47.119,-7.8,47.119Z" /></g><g id="i4" transform="matrix(1,0,0,1,-38,-2)"><path fill="#ffffff" d="" /></g></g><g transform="matrix(1,0,0,1,-83.059,81.5)" visibility="visible" id="i15"><animate repeatCount="indefinite" begin="0s" calcMode="discrete" dur="4s" values="visible; hidden; hidden" keyTimes="0; 0.09; 1" attributeName="visibility" /><g id="i3" transform="matrix(1,0,0,1,351.016,528.813)"><path fill="#ffffff" d="M-7.8,47.119C-12.601,47.119,-17.48,46.002,-22.038,43.52C-36.839,35.598,-42.442,17.201,-34.602,2.399C-34.602,2.399,-19.077,-26.722,-19.077,-26.722C-11.159,-41.523,7.243,-47.119,22.04,-39.28C36.842,-31.362,42.442,-12.959,34.602,1.842C34.602,1.842,19.083,30.959,19.083,30.959C13.641,41.201,3.083,47.119,-7.8,47.119Z" /></g><g id="i4" transform="matrix(1,0,0,1,-38,-2)"><path fill="#ffffff" d="" /></g></g><g transform="matrix(1,0,0,1,211.941,81.5)" visibility="visible" id="i16"><animate repeatCount="indefinite" begin="0s" calcMode="discrete" dur="4s" values="visible; hidden; hidden" keyTimes="0; 0.1; 1" attributeName="visibility" /><g id="i3" transform="matrix(1,0,0,1,351.016,528.813)"><path fill="#ffffff" d="M-7.8,47.119C-12.601,47.119,-17.48,46.002,-22.038,43.52C-36.839,35.598,-42.442,17.201,-34.602,2.399C-34.602,2.399,-19.077,-26.722,-19.077,-26.722C-11.159,-41.523,7.243,-47.119,22.04,-39.28C36.842,-31.362,42.442,-12.959,34.602,1.842C34.602,1.842,19.083,30.959,19.083,30.959C13.641,41.201,3.083,47.119,-7.8,47.119Z" /></g><g id="i4" transform="matrix(1,0,0,1,-38,-2)"><path fill="#ffffff" d="" /></g></g></svg>